<svg width="25" height="24" viewBox="0 0 25 24" fill="none" xmlns="http://www.w3.org/2000/svg">
<path fill-rule="evenodd" clip-rule="evenodd" d="M2.1665 0C1.06193 0 0.166504 0.895431 0.166504 2V22C0.166504 23.1046 1.06194 24 2.1665 24H22.1665C23.2711 24 24.1665 23.1046 24.1665 22V2C24.1665 0.89543 23.2711 0 22.1665 0H18.1665H6.1665H2.1665ZM17.1665 2V4C17.1665 4.55228 17.6142 5 18.1665 5C18.7188 5 19.1665 4.55228 19.1665 4V2H22.1665V6H2.1665V2H5.1665V4C5.1665 4.55228 5.61422 5 6.1665 5C6.71879 5 7.1665 4.55228 7.1665 4V2L17.1665 2ZM2.1665 8V22H22.1665V8H2.1665ZM16.3921 11C16.6155 11 16.8005 11.0479 16.9469 11.1438C17.0933 11.2397 17.1665 11.3947 17.1665 11.6086V18.3914C17.1665 18.6053 17.0933 18.7603 16.9469 18.8562C16.8005 18.9521 16.6271 19 16.4268 19C16.2264 19 16.053 18.9521 15.9066 18.8562C15.7602 18.7603 15.687 18.6053 15.687 18.3914V12.6598L14.196 13.4786C14.0033 13.5818 13.8223 13.604 13.6527 13.545C13.4832 13.4786 13.3522 13.3642 13.2597 13.2019C13.175 13.0544 13.148 12.8958 13.1788 12.7261C13.2097 12.5565 13.3137 12.4237 13.4909 12.3278L15.4443 11.2877C15.6446 11.1844 15.818 11.1107 15.9644 11.0664C16.1108 11.0221 16.2534 11 16.3921 11ZM10.7746 11.1647C10.4452 11.0549 10.0571 11 9.61056 11C9.14934 11 8.74669 11.0769 8.4026 11.2306C8.05852 11.377 7.76934 11.5784 7.53507 11.8346C7.43258 11.959 7.37401 12.0981 7.35937 12.2519C7.35204 12.4056 7.40329 12.5484 7.51311 12.6802C7.6156 12.8119 7.74738 12.8888 7.90844 12.9108C8.0695 12.9254 8.21958 12.8705 8.35868 12.7461C8.54902 12.5777 8.73571 12.4496 8.91873 12.3617C9.10908 12.2738 9.33603 12.2299 9.59958 12.2299C10.0388 12.2299 10.3573 12.3141 10.555 12.4825C10.7526 12.6436 10.8515 12.8632 10.8515 13.1414V13.1743C10.8515 13.555 10.7343 13.8405 10.5001 14.0309C10.2731 14.2139 9.91438 14.3054 9.42388 14.3054H8.96266C8.78695 14.3054 8.65884 14.364 8.57831 14.4811C8.49778 14.5983 8.45751 14.741 8.45751 14.9094C8.45751 15.0778 8.49778 15.2205 8.57831 15.3377C8.65884 15.4548 8.78695 15.5134 8.96266 15.5134H9.54467C10.1084 15.5134 10.5147 15.6049 10.7636 15.7879C11.0125 15.9636 11.137 16.2382 11.137 16.6115V16.6994C11.137 16.8531 11.1077 16.9995 11.0491 17.1386C10.9979 17.2704 10.91 17.3875 10.7856 17.49C10.6684 17.5852 10.511 17.6621 10.3134 17.7206C10.1157 17.7719 9.87046 17.7975 9.57762 17.7975C9.30674 17.7975 9.06149 17.7646 8.84186 17.6987C8.62223 17.6328 8.3843 17.5157 8.12807 17.3473C7.95968 17.2448 7.80228 17.2118 7.65586 17.2484C7.50945 17.2851 7.38499 17.3875 7.2825 17.5559C7.18732 17.7097 7.15072 17.8744 7.17268 18.0501C7.20196 18.2185 7.3008 18.3576 7.46918 18.4674C7.7913 18.6724 8.13173 18.8225 8.49046 18.9176C8.84918 19.0055 9.24452 19.0494 9.67645 19.0494C10.145 19.0494 10.5586 18.9872 10.9174 18.8627C11.2761 18.7383 11.5762 18.5735 11.8178 18.3686C12.0594 18.1562 12.2425 17.9147 12.3669 17.6438C12.4914 17.3656 12.5536 17.0727 12.5536 16.7653V16.6554C12.5536 16.3699 12.506 16.1247 12.4108 15.9197C12.323 15.7074 12.2022 15.5317 12.0484 15.3926C11.8947 15.2462 11.719 15.1327 11.5213 15.0522C11.3237 14.9716 11.1223 14.9167 10.9174 14.8874C11.1223 14.8215 11.3054 14.73 11.4664 14.6129C11.6275 14.4884 11.7629 14.3457 11.8727 14.1846C11.9899 14.0162 12.0777 13.8369 12.1363 13.6465C12.1949 13.4489 12.2241 13.2512 12.2241 13.0535V12.9986C12.2241 12.7351 12.1729 12.4825 12.0704 12.2409C11.9679 11.9993 11.8069 11.787 11.5872 11.604C11.3749 11.421 11.104 11.2745 10.7746 11.1647Z" fill="#BAAAAA"/>
</svg>
