<svg width="25" height="24" viewBox="0 0 25 24" fill="none" xmlns="http://www.w3.org/2000/svg">
<path fill-rule="evenodd" clip-rule="evenodd" d="M7.83316 7C7.83316 4.23858 10.0717 2 12.8332 2C15.5946 2 17.8332 4.23858 17.8332 7C17.8332 9.76142 15.5946 12 12.8332 12C10.0717 12 7.83316 9.76142 7.83316 7ZM16.9462 12.6648C18.6958 11.3923 19.8332 9.32895 19.8332 7C19.8332 3.13401 16.6992 0 12.8332 0C8.96717 0 5.83316 3.13401 5.83316 7C5.83316 9.32895 6.97052 11.3923 8.7201 12.6648C4.51245 14.0727 1.36318 17.5823 0.893176 21.8933C0.760862 23.107 1.76155 24 2.83316 24H22.8332C23.9048 24 24.9055 23.107 24.7731 21.8933C24.3031 17.5823 21.1539 14.0727 16.9462 12.6648ZM12.8332 14C7.61005 14 3.4386 17.5725 2.89417 22H22.7722C22.2277 17.5725 18.0563 14 12.8332 14ZM9.83316 7C9.83316 6.44772 10.2809 6 10.8332 6H11.8332V5C11.8332 4.44772 12.2809 4 12.8332 4C13.3854 4 13.8332 4.44772 13.8332 5V6H14.8332C15.3854 6 15.8332 6.44772 15.8332 7C15.8332 7.55228 15.3854 8 14.8332 8H13.8332V9C13.8332 9.55229 13.3854 10 12.8332 10C12.2809 10 11.8332 9.55228 11.8332 9V8H10.8332C10.2809 8 9.83316 7.55228 9.83316 7Z" fill="#E86161"/>
</svg>
