<svg width="25" height="24" viewBox="0 0 25 24" fill="none" xmlns="http://www.w3.org/2000/svg">
<path fill-rule="evenodd" clip-rule="evenodd" d="M7.83314 7C7.83314 4.23858 10.0717 2 12.8331 2C15.5946 2 17.8331 4.23858 17.8331 7C17.8331 9.76142 15.5946 12 12.8331 12C10.0717 12 7.83314 9.76142 7.83314 7ZM16.9462 12.6648C18.6958 11.3923 19.8331 9.32895 19.8331 7C19.8331 3.13401 16.6991 0 12.8331 0C8.96715 0 5.83314 3.13401 5.83314 7C5.83314 9.32895 6.9705 11.3923 8.72008 12.6648C4.51243 14.0727 1.36316 17.5823 0.893157 21.8933C0.760843 23.107 1.76153 24 2.83314 24H22.8331C23.9048 24 24.9054 23.107 24.7731 21.8933C24.3031 17.5823 21.1539 14.0727 16.9462 12.6648ZM12.8331 14C7.61003 14 3.43858 17.5725 2.89415 22H22.7721C22.2277 17.5725 18.0562 14 12.8331 14ZM9.83314 7C9.83314 6.44772 10.2809 6 10.8331 6H11.8331V5C11.8331 4.44772 12.2809 4 12.8331 4C13.3854 4 13.8331 4.44772 13.8331 5V6H14.8331C15.3854 6 15.8331 6.44772 15.8331 7C15.8331 7.55228 15.3854 8 14.8331 8H13.8331V9C13.8331 9.55229 13.3854 10 12.8331 10C12.2809 10 11.8331 9.55228 11.8331 9V8H10.8331C10.2809 8 9.83314 7.55228 9.83314 7Z" fill="#BAAAAA"/>
</svg>
