<svg width="23" height="24" viewBox="0 0 23 24" fill="none" xmlns="http://www.w3.org/2000/svg">
<path fill-rule="evenodd" clip-rule="evenodd" d="M12.9143 0.792817C12.1333 0.011767 10.867 0.0117695 10.0859 0.792817L4.50012 6.37861C3.53996 7.33877 3.82975 8.81834 4.8106 9.46803L2.76816 11.3062C1.77458 12.2004 1.96689 13.6447 2.85476 14.3612L0.719481 16.3185C-0.625099 17.551 0.246907 19.7928 2.07093 19.7928L8.50013 19.7928V21.7928C8.50013 22.8974 9.39556 23.7928 10.5001 23.7928H12.5001C13.6047 23.7928 14.5001 22.8974 14.5001 21.7928V19.7928L20.9293 19.7928C22.7533 19.7928 23.6254 17.551 22.2808 16.3185L20.1455 14.3612C21.0334 13.6447 21.2257 12.2005 20.2321 11.3062L18.1897 9.46803C19.1705 8.81834 19.4603 7.33877 18.5001 6.3786L12.9143 0.792817ZM15.5608 9.79282L18.8942 12.7928H17.6566H5.34366H4.10608L2.76816 11.3062L4.10609 12.7928L7.43942 9.79282H11.5001H15.5608ZM15.562 7.79282L17.0859 7.79282L11.5001 2.20703L5.91434 7.79282L7.43655 7.79282C7.4375 7.79282 7.43846 7.79282 7.43942 7.79282H11.5001H15.5608C15.5612 7.79282 15.5616 7.79282 15.562 7.79282ZM20.9293 17.7928L12.5001 17.7928H10.5001L2.07093 17.7928L5.34366 14.7928H17.6566L20.9293 17.7928ZM10.5001 21.7928V19.7928H12.5001V21.7928H10.5001Z" fill="#BAAAAA"/>
</svg>
